<svg width="98" height="79" viewBox="0 0 98 79" fill="none" xmlns="http://www.w3.org/2000/svg">
<path d="M97.9522 60.7545C97.9521 70.6956 89.8933 78.7545 79.9521 78.7545L51.9342 78.7545C49.1728 78.7545 46.9342 76.5159 46.9342 73.7545L46.9342 39.2805C46.9342 33.7576 51.4114 29.2805 56.9342 29.2805L92.9522 29.2805C95.7136 29.2805 97.9522 31.519 97.9522 34.2805L97.9522 60.7545Z" fill="#FFF1DA"/>
<g filter="url(#filter0_d_201_797)">
<path d="M28.0851 51.1473L26.1586 50.2347L14.7136 66.9798H27.4864L28.7172 66.1857V51.7205L28.0851 51.1473Z" fill="#407093"/>
<path d="M26.3328 50.3174L22.0012 48.2654H21.1849L8.93677 66.1857L9.66594 66.9799H14.9443L26.3328 50.3174Z" fill="#365E7D"/>
<path d="M31.0166 66.1855H14.1271C13.3598 66.1855 12.7378 66.8009 12.7378 67.5603V69.3024C12.7378 70.0615 13.3597 70.6768 14.1268 70.677H31.0166C31.7838 70.677 32.4059 70.0616 32.4059 69.3024V67.5603C32.4059 66.8009 31.7838 66.1855 31.0166 66.1855Z" fill="#4A80AA"/>
<path d="M13.0253 69.3024V67.5603C13.0253 66.8011 13.6474 66.1855 14.4146 66.1855H5.4684C4.70114 66.1855 4.0791 66.8009 4.0791 67.5603V69.3024C4.0791 70.0616 4.70114 70.677 5.4684 70.677H14.4145C13.6472 70.677 13.0253 70.0616 13.0253 69.3024Z" fill="#407093"/>
<path d="M25.7515 40.3694C25.2315 41.4306 24.9377 42.6206 24.9377 43.8794C24.9377 47.3192 27.1145 50.2535 30.1783 51.4143C31.4936 51.0066 32.6624 50.2709 33.5856 49.3024V47.5448L25.7515 40.3694Z" fill="#4A80AA"/>
<path d="M25.0747 43.9069C25.0747 42.6772 25.3621 41.5149 25.8708 40.4786L23.3666 38.1849H22.3505C20.8139 39.6193 19.8533 41.6514 19.8533 43.9067C19.8533 48.2514 23.4125 51.7734 27.8032 51.7734C28.7178 51.7734 29.5948 51.6181 30.4123 51.3367C27.3053 50.2671 25.0747 47.3456 25.0747 43.9069Z" fill="#407093"/>
<path d="M71.2308 0.933641C69.9728 -0.311214 67.9332 -0.311214 66.6753 0.933641L63.6011 3.97565V4.3612L67.4381 8.31925L68.1566 8.48352L71.2307 5.44151C72.4889 4.19679 72.4889 2.17849 71.2308 0.933641Z" fill="#FFD086"/>
<path d="M72.0807 2.43829C71.9465 1.88723 71.6655 1.36391 71.2308 0.933641C69.9728 -0.311214 67.9332 -0.311214 66.6753 0.933641L63.6011 3.97565V4.3612L65.6354 6.4597C66.8483 5.21084 68.0524 3.97841 68.6717 3.36565C69.704 2.34428 71.2117 2.33641 72.0807 2.43829Z" fill="#FFC365"/>
<path d="M60.7064 9.03682C60.6711 9.03682 60.6354 9.03502 60.5996 9.03157L25.0743 5.57143C24.4819 5.51373 24.049 4.9918 24.1073 4.40554C24.1656 3.81928 24.6934 3.39121 25.2855 3.4485L60.8108 6.9085C61.4031 6.9662 61.8361 7.48813 61.7778 8.07439C61.723 8.62532 61.2541 9.03682 60.7064 9.03682Z" fill="#365E7D"/>
<path d="M35.3488 15.6177C34.8708 15.6177 34.434 15.3004 34.307 14.8214C34.156 14.2516 34.5004 13.6685 35.0761 13.519L60.4321 6.93791C61.0078 6.78869 61.5972 7.12924 61.7481 7.69907C61.8992 8.26877 61.5549 8.85185 60.9791 9.00135L35.6231 15.5825C35.5313 15.6062 35.4392 15.6177 35.3488 15.6177Z" fill="#407093"/>
<path d="M67.5929 47.592C67.0448 47.592 66.576 47.1801 66.5214 46.629L63.0464 11.4542C62.9886 10.8681 63.4218 10.3463 64.0143 10.2889C64.6068 10.2342 65.134 10.6605 65.1918 11.2468L68.6668 46.4216C68.7247 47.0077 68.2914 47.5295 67.699 47.5869C67.6634 47.5902 67.628 47.592 67.5929 47.592Z" fill="#365E7D"/>
<path d="M57.3676 37.6078C57.2762 37.6078 57.1833 37.5961 57.0907 37.5719C56.5152 37.4209 56.1725 36.837 56.3251 36.2676L63.0738 11.0802C63.2263 10.5106 63.8162 10.172 64.3918 10.3225C64.9672 10.4735 65.31 11.0574 65.1574 11.6268L58.4087 36.8142C58.2808 37.2921 57.8446 37.6078 57.3676 37.6078Z" fill="#407093"/>
<path d="M60.512 7.03149L63.594 3.98174L68.1489 8.48898L65.0669 11.5387L60.512 7.03149Z" fill="#FFC365"/>
<path d="M62.8524 9.33504C63.5932 8.56754 64.7499 7.37045 65.8687 6.21946L63.6011 3.97546L60.5186 7.02562L62.8524 9.33504Z" fill="#FFA90F"/>
<path d="M65.7606 13.2791C65.4848 13.2791 65.2089 13.1748 64.9985 12.9667L59.0706 7.10104C58.6496 6.68443 58.6496 6.00927 59.0706 5.59252C59.4915 5.17619 60.174 5.17619 60.595 5.59252L66.5228 11.4582C66.9438 11.8748 66.9438 12.5499 66.5228 12.9667C66.3123 13.175 66.0365 13.2791 65.7606 13.2791Z" fill="#4A80AA"/>
<path d="M66.4562 49.5119L30.3653 13.4891C25.5804 24.1782 24.7495 35.6529 28.3316 45.5478C38.2245 54.3783 53.0026 55.7343 66.6074 50.1833L66.4562 49.5119Z" fill="#B5DCFF"/>
<path d="M30.5575 13.681L22.2885 5.42761L21.4599 5.5085C15.634 19.4897 17.3351 34.7243 27.2088 44.4946C27.8068 45.0864 28.4256 45.6479 29.0627 46.1806C24.9006 36.2975 25.577 24.5427 30.5575 13.681Z" fill="#8BCAFF"/>
<path d="M69.7545 46.9516L33.1507 10.731C32.7905 10.7859 32.4437 10.948 32.1664 11.2224L30.5742 12.798C30.2323 13.1363 30.0623 13.5782 30.0574 14.0217L66.5452 50.1273C67.0877 50.6642 67.9672 50.6642 68.5098 50.1273L69.7547 48.8956C70.2971 48.3589 70.2971 47.4884 69.7545 46.9516Z" fill="#DBEDFF"/>
<path d="M30.6293 12.8249L32.1882 11.2823C32.4753 10.9982 32.8379 10.8356 33.212 10.7916L24.7264 2.39482C24.1839 1.85798 23.3043 1.85798 22.7617 2.39482L21.5168 3.6267C20.9742 4.16354 20.9742 5.03389 21.5168 5.57073L30.1216 14.0855C30.1103 13.6305 30.2784 13.1721 30.6293 12.8249Z" fill="#B5DCFF"/>
</g>
<defs>
<filter id="filter0_d_201_797" x="0.0791016" y="0" width="76.0952" height="78.677" filterUnits="userSpaceOnUse" color-interpolation-filters="sRGB">
<feFlood flood-opacity="0" result="BackgroundImageFix"/>
<feColorMatrix in="SourceAlpha" type="matrix" values="0 0 0 0 0 0 0 0 0 0 0 0 0 0 0 0 0 0 127 0" result="hardAlpha"/>
<feOffset dy="4"/>
<feGaussianBlur stdDeviation="2"/>
<feComposite in2="hardAlpha" operator="out"/>
<feColorMatrix type="matrix" values="0 0 0 0 0 0 0 0 0 0 0 0 0 0 0 0 0 0 0.25 0"/>
<feBlend mode="normal" in2="BackgroundImageFix" result="effect1_dropShadow_201_797"/>
<feBlend mode="normal" in="SourceGraphic" in2="effect1_dropShadow_201_797" result="shape"/>
</filter>
</defs>
</svg>
