<svg width="30" height="32" viewBox="0 0 30 32" fill="none" xmlns="http://www.w3.org/2000/svg">
<ellipse cx="14.6842" cy="15.8679" rx="14.6842" ry="15.8679" fill="#F5F5F5"/>
<g clip-path="url(#clip0_202_283)">
<path d="M20.1129 10.7116C19.812 10.6164 12.451 9.82447 9.86595 13.5985C8.72103 15.2704 8.70383 17.5623 9.80857 20.4101C9.52833 21.0386 9.28301 21.7007 9.08307 22.3994C9.02228 22.6117 9.13223 22.8368 9.32847 22.9022C9.36505 22.9145 9.4021 22.9203 9.43868 22.9203C9.59733 22.9203 9.74462 22.8095 9.79378 22.6371C11.7641 15.7536 18.1672 12.4234 20.1307 11.5821C20.3218 11.5002 20.5772 10.8584 20.1129 10.7116Z" fill="#84829A"/>
<path d="M10.9901 21.2715C12.0559 21.7546 13.1215 22.0022 14.1124 22.0022C15.0031 22.0022 15.8337 21.8043 16.5495 21.4031C17.99 20.5955 18.8703 19.0509 19.0951 16.9356C19.3241 14.7799 19.6092 13.4296 19.8471 12.6035C17.7299 13.6589 13.1902 16.3944 10.9901 21.2715Z" fill="#84829A"/>
</g>
<defs>
<clipPath id="clip0_202_283">
<rect width="11.4211" height="12.3417" fill="white" transform="translate(8.97363 10.5786)"/>
</clipPath>
</defs>
</svg>
