<svg width="30" height="32" viewBox="0 0 30 32" fill="none" xmlns="http://www.w3.org/2000/svg">
<ellipse cx="14.7369" cy="15.8679" rx="14.6842" ry="15.8679" fill="#F5F5F5"/>
<g clip-path="url(#clip0_202_297)">
<path d="M19.2246 9.69727C19.1612 9.69724 19.0988 9.71315 19.0421 9.74375L15.9511 11.4143L12.4559 9.73539C12.4502 9.73275 12.4437 9.73229 12.4376 9.72965C12.4218 9.7233 12.4058 9.718 12.3894 9.71379C12.3732 9.70907 12.3567 9.70538 12.3401 9.70277C12.307 9.69982 12.2737 9.69982 12.2406 9.70277C12.2239 9.70538 12.2074 9.70907 12.1912 9.71379C12.1749 9.718 12.1588 9.7233 12.1431 9.72965C12.137 9.73229 12.1304 9.73273 12.1247 9.73539L8.45372 11.4985C8.30636 11.5692 8.2114 11.7271 8.21143 11.9013V21.5982C8.2115 21.7473 8.28131 21.8863 8.39701 21.9676C8.51273 22.049 8.65869 22.0616 8.7849 22.0011L12.2903 20.3173L15.7957 22.0011C15.8018 22.0037 15.8083 22.0011 15.8145 22.005C15.9132 22.0528 16.0266 22.05 16.1232 21.9976C16.1297 21.9945 16.1371 21.9976 16.1436 21.9927L19.4067 20.2296C19.545 20.155 19.6323 20.0022 19.6323 19.8351V10.1382C19.6324 9.89481 19.4499 9.69737 19.2246 9.69727ZM11.8824 19.5486L9.02719 20.9198V12.1878L11.8824 10.8166V19.5486ZM15.5534 20.9198L12.6982 19.5486V10.8166L15.5534 12.1878V20.9198ZM18.8165 19.5627L16.3692 20.885V12.1737L18.8165 10.8514V19.5627Z" fill="#84829A"/>
</g>
<defs>
<clipPath id="clip0_202_297">
<rect width="11.4211" height="12.3417" fill="white" transform="translate(8.21069 9.69727)"/>
</clipPath>
</defs>
</svg>
