<svg width="20" height="21" viewBox="0 0 20 21" fill="none" xmlns="http://www.w3.org/2000/svg">
    <symbol id="nav-advant-symbol">
        <path d="M17.5662 3.57082L10.8934 18.4789C10.8375 18.6038 10.7429 18.7062 10.6241 18.7701C10.5054 18.834 10.3694 18.8559 10.2373 18.8322C10.1051 18.8085 9.9844 18.7407 9.89394 18.6393C9.80348 18.5379 9.74838 18.4086 9.73728 18.2717L9.17313 11.3415L2.40527 10.7638C2.27161 10.7525 2.14539 10.6961 2.04636 10.6034C1.94733 10.5108 1.88108 10.3872 1.85796 10.2519C1.83484 10.1166 1.85616 9.97727 1.91858 9.85571C1.98101 9.73414 2.08101 9.63719 2.20297 9.58002L16.7618 2.74715C16.8743 2.69433 17 2.67804 17.1218 2.70047C17.2437 2.7229 17.3559 2.78297 17.4435 2.87261C17.531 2.96225 17.5897 3.07718 17.6116 3.20196C17.6335 3.32673 17.6176 3.45539 17.566 3.57064L17.5662 3.57082Z" fill="#080809"/>
    </symbol>

</svg>
