<svg width="30" height="32" viewBox="0 0 30 32" fill="none" xmlns="http://www.w3.org/2000/svg">
<ellipse cx="14.7106" cy="15.8679" rx="14.6842" ry="15.8679" fill="#F5F5F5"/>
<path d="M19.0696 11.6739L13.9158 17.2637C13.8568 17.2267 13.7946 17.1957 13.7302 17.1711L10.3277 15.9267C10.2248 15.8988 10.1335 15.8346 10.0682 15.7442C10.003 15.6539 9.96753 15.5425 9.96753 15.4279C9.96753 15.3132 10.003 15.2019 10.0682 15.1115C10.1335 15.0212 10.2248 14.9569 10.3277 14.9291L18.7698 11.6842C18.825 11.664 18.8828 11.6536 18.9411 11.6534C18.9847 11.6526 19.0281 11.6596 19.0696 11.6739Z" fill="#84829A"/>
<path d="M19.3979 12.363L16.3951 21.4959C16.362 21.6023 16.2975 21.6941 16.2116 21.7573C16.1257 21.8204 16.023 21.8514 15.9192 21.8456C15.8143 21.8508 15.7106 21.8183 15.6246 21.7531C15.5385 21.688 15.4748 21.594 15.4433 21.4856L14.3108 17.8088C14.288 17.7392 14.2593 17.6721 14.2251 17.6082L19.4074 12.0391C19.4366 12.1453 19.4333 12.259 19.3979 12.363Z" fill="#84829A"/>
</svg>
