<svg width="61" height="56" viewBox="0 0 61 56" fill="none" xmlns="http://www.w3.org/2000/svg">
<ellipse cx="30.5" cy="28" rx="30.5" ry="28" fill="url(#paint0_linear_204_450)"/>
<path d="M45.8464 19.1924C46.4489 20.1504 46.3681 21.291 45.6349 22.1689L29.5363 41.4546C28.8723 42.2499 27.7791 42.6554 26.6613 42.4584C25.5667 42.2651 24.6987 41.5326 24.3975 40.5473L22.0155 32.7645L21.7674 31.9549L21.1278 31.3529L14.9769 25.5677C14.198 24.8356 13.941 23.7793 14.306 22.8124C14.6672 21.8565 15.5733 21.163 16.6903 21.0286L42.9328 17.8724C44.1276 17.7284 45.244 18.2345 45.8464 19.1924Z" fill="white"/>
<path d="M22.0157 32.7642L24.3977 40.5471C24.6989 41.5323 25.5668 42.2648 26.6615 42.4581C27.7793 42.6552 28.8725 42.2497 29.5364 41.4544L45.635 22.1687C46.3683 21.2907 46.449 20.1501 45.8466 19.1922L21.7676 31.9547L22.0157 32.7642Z" fill="white"/>
<path d="M31.5664 26.761C31.8114 27.1506 31.6663 27.6491 31.2414 27.8743L22.0159 32.7641L21.7678 31.9545L21.1282 31.3525L30.3537 26.4627C30.7786 26.2376 31.3214 26.3715 31.5664 26.761Z" fill="url(#paint1_linear_204_450)"/>
<path d="M22.0159 32.7644L31.2414 27.8746C31.6663 27.6494 31.8114 27.1509 31.5664 26.7613L21.7678 31.9548L22.0159 32.7644Z" fill="url(#paint2_linear_204_450)"/>
<defs>
<linearGradient id="paint0_linear_204_450" x1="43.2636" y1="1.57114" x2="20.6871" y2="63.5371" gradientUnits="userSpaceOnUse">
<stop stop-color="#747DEF"/>
<stop offset="1" stop-color="#5E3BE1"/>
</linearGradient>
<linearGradient id="paint1_linear_204_450" x1="28.2415" y1="27.6351" x2="29.1039" y2="29.5189" gradientUnits="userSpaceOnUse">
<stop stop-color="#747DEF"/>
<stop offset="1" stop-color="#5E3BE1"/>
</linearGradient>
<linearGradient id="paint2_linear_204_450" x1="28.6729" y1="28.3214" x2="29.1327" y2="29.2536" gradientUnits="userSpaceOnUse">
<stop stop-color="#747DEF"/>
<stop offset="1" stop-color="#5E3BE1"/>
</linearGradient>
</defs>
</svg>
